g pCube2
v -43.3126793 65.8126678 45
v -43.3126793 -7.81597009E-14 45
v -45.0000153 -7.81597009E-14 43.3126678
v -45.0000153 65.8126678 43.3126678
v -45.0000153 65.8126678 -43.3126678
v -45.0000153 -7.81597009E-14 -43.3126678
v -43.3126793 67.5 43.3126678
v -43.3126793 67.5 -43.3126678
v -43.3126793 65.8126678 -45
v -43.3126793 -7.81597009E-14 -45
v -45.0000153 -7.81597009E-14 -43.3126678
v 43.3126526 -7.81597009E-14 -45
v 43.3126526 65.8126678 -45
v 43.3126526 67.5 -43.3126678
v 43.3126526 65.8126678 45
v 43.3126526 67.5 43.3126678
v 44.9999847 65.8126678 -43.3126678
v 44.9999847 65.8126678 43.3126678
v 44.9999847 65.8126678 43.3126678
v 43.3126526 -7.81597009E-14 45
v -43.3126793 -7.81597009E-14 45
v 44.9999847 -7.81597009E-14 43.3126678
v 44.9999847 -7.81597009E-14 -43.3126678
v 43.3126526 -7.81597009E-14 -45
v 44.9999847 -7.81597009E-14 43.3126678
vt 0.177261859 0.130430862
vt 0.0592570156 0.130430862
vt 0.0592570156 0.134736955
vt 0.176653624 0.134665832
vt 0.176756293 0.289631307
vt 0.0592570156 0.289631307
vt 0.18020159 0.134232759
vt 0.180446863 0.287398309
vt 0.180875137 0.290908128
vt 0.181241244 0.408818483
vt 0.176756293 0.408818483
vt 0.336178124 0.408818483
vt 0.336178124 0.290780157
vt 0.333856076 0.287213683
vt 0.332034469 0.129458129
vt 0.33369118 0.13402769
vt 0.337692857 0.286123157
vt 0.336370498 0.129611954
vt 0.337657481 0.132983804
vt 0.33173278 0.0118989795
vt 0.177261859 0.0118989795
vt 0.336370498 0.0118989795
vt 0.453706682 0.28619808
vt 0.453706682 0.290780157
vt 0.453706682 0.132983804
vn -0.0187848844 0.0246750899 0.999518991
vn -0.0191028621 0 0.99981755
vn -0.99981755 0 0.0191029012
vn -0.999518991 0.024675142 0.0187849216
vn -0.999518991 0.024675142 -0.0187849216
vn -0.99981755 0 -0.0191029012
vn -0.0188608542 0.999644279 0.01886083
vn -0.0188608542 0.999644279 -0.01886083
vn -0.0187848844 0.0246750899 -0.999518991
vn -0.0191028621 0 -0.99981755
vn -0.99981755 0 -0.0191029012
vn 0.0191028621 0 -0.99981755
vn 0.0187848844 0.0246750936 -0.999518991
vn 0.0188608561 0.999644279 -0.0188608337
vn 0.0187848844 0.0246750936 0.999518991
vn 0.0188608561 0.999644279 0.0188608337
vn 0.999518991 0.0246750601 -0.0187848806
vn 0.999518991 0.0246750601 0.0187848806
vn 0.999518991 0.0246750601 0.0187848806
vn 0.0191028621 0 0.99981755
vn -0.0191028621 0 0.99981755
vn 0.99981755 0 0.0191028584
vn 0.99981755 0 -0.0191028584
vn 0.0191028621 0 -0.99981755
vn 0.99981755 0 0.0191028584
g pCube2_0
f 3/3/3 2/2/2 1/1/1
f 4/4/4 3/3/3 1/1/1
f 3/3/3 4/4/4 5/5/5
f 6/6/6 3/3/3 5/5/5
f 1/1/1 7/7/7 4/4/4
f 8/8/8 5/5/5 4/4/4
f 7/7/7 8/8/8 4/4/4
f 8/8/8 9/9/9 5/5/5
f 9/9/9 10/10/10 5/5/5
f 10/10/10 11/11/11 5/5/5
f 12/12/12 10/10/10 9/9/9
f 13/13/13 12/12/12 9/9/9
f 8/8/8 14/14/14 9/9/9
f 14/14/14 8/8/8 7/7/7
f 14/14/14 13/13/13 9/9/9
f 1/1/1 15/15/15 7/7/7
f 16/16/16 14/14/14 7/7/7
f 15/15/15 16/16/16 7/7/7
f 14/14/14 17/17/17 13/13/13
f 17/17/17 14/14/14 16/16/16
f 15/15/15 18/18/18 16/16/16
f 19/19/19 17/17/17 16/16/16
f 20/20/20 15/15/15 1/1/1
f 15/15/15 20/20/20 18/18/18
f 21/21/21 20/20/20 1/1/1
f 20/20/20 22/22/22 18/18/18
f 17/17/17 23/23/23 13/13/13
f 23/23/23 17/17/17 19/19/19
f 23/23/23 24/24/24 13/13/13
f 25/25/25 23/23/23 19/19/19
