g Start_back
v 50 50.0000076 -49.9999924
v 50 -49.9999924 -50.0000076
v 50 -45.4545364 -45.4545517
v 50 45.4545517 -45.4545364
v 45.4545441 -45.4545364 -50.0000076
v 50 -49.9999924 -50.0000076
v 50 50.0000076 -49.9999924
v 45.4545441 45.4545517 -49.9999924
v -50 -49.9999924 -50.0000076
v -50 50.0000076 -49.9999924
v -50 45.4545517 -45.4545364
v -50 -45.4545364 -45.4545517
v -45.4545441 45.4545517 -49.9999924
v -50 50.0000076 -49.9999924
v -50 -49.9999924 -50.0000076
v -45.4545441 -45.4545364 -50.0000076
vt 0.488458693 0.95400846
vt 0.00696764886 0.95400846
vt 0.0288535506 0.991803169
vt 0.466572762 0.991803169
vt 0.0288535506 0.91621387
vt 0.00696764886 0.95400846
vt 0.488458693 0.95400846
vt 0.466572762 0.91621387
vt 0.488458693 0.95400846
vt 0.00696764886 0.95400846
vt 0.0288535506 0.991803169
vt 0.466572762 0.991803169
vt 0.0288535506 0.91621387
vt 0.00696764886 0.95400846
vt 0.488458693 0.95400846
vt 0.466572762 0.91621387
vn 1 0 0
vn 1 0 0
vn 1 0 0
vn 1 0 0
vn -0 0 -1
vn -0 0 -1
vn -0 0 -1
vn -0 0 -1
vn -1 0 0
vn -1 0 0
vn -1 0 0
vn -1 0 0
vn -0 0 -1
vn -0 0 -1
vn -0 0 -1
vn -0 0 -1
g Start_back_0
f 3/3/3 2/2/2 1/1/1
f 4/4/4 3/3/3 1/1/1
f 7/7/7 6/6/6 5/5/5
f 8/8/8 7/7/7 5/5/5
f 11/11/11 10/10/10 9/9/9
f 12/12/12 11/11/11 9/9/9
f 15/15/15 14/14/14 13/13/13
f 16/16/16 15/15/15 13/13/13
